<svg xmlns="http://www.w3.org/2000/svg" viewBox="0 0 185.43 79.36"><defs><style>.cls-1{fill:#b91822;}.cls-2{fill:#006a30;}.cls-3,.cls-4{fill:#fff;}.cls-4{fill-rule:evenodd;}</style></defs><title>Asset 2</title><g id="Layer_2" data-name="Layer 2"><g id="LOGOTYPE"><path class="cls-1" d="M182.24,37.93a38.26,38.26,0,0,1-5.45,19.74c-7,13.16-21.92,21.69-38.59,21.7h6.51a42,42,0,0,0,30-13.49,38.6,38.6,0,0,0,10.72-26.29A39,39,0,0,0,156.49,1.93C170.82,7.52,182.24,21.61,182.24,37.93Z"/><path class="cls-1" d="M3.19,41.44A38.26,38.26,0,0,1,8.64,21.7C15.62,8.54,30.56,0,47.23,0H40.72a42,42,0,0,0-30,13.49A38.6,38.6,0,0,0,0,39.78,39,39,0,0,0,28.95,77.43C14.61,71.84,3.19,57.75,3.19,41.44Z"/><path class="cls-2" d="M49.08,79.36c-23,0-44.61-18.51-44.61-40.8S24.21,0,47.24,0h89.11C159.39,0,181,18.51,181,40.8s-19.74,38.56-42.78,38.56Z"/><path class="cls-3" d="M39.72,30.25H20.55c-.14.75.13,1.43,1.59,1.79,1.24.3,3.49.91,3.63.91C21.26,49.53,20.33,53.11,20,54.24h1.44c2.74,0,4.15-1.27,4.61-3.06.41-1.59,1.51-5.64,1.51-5.64h8.13c4.86,0,8.32-5.27,8.32-10.33,0-4.31-2.2-5-4.32-5m-3,11.06a1.52,1.52,0,0,1-1,.37H28.61l1.92-7.2h7.07a1.11,1.11,0,0,1,1,1A7.12,7.12,0,0,1,36.77,41.3Z"/><path class="cls-4" d="M48.26,30.24H49.4c1.95,0,3,.7,3.45,2.22.36,1.19,3.86,13.08,3.86,13.08S67.44,32.27,67.94,31.66c.81-1,2.45-1.41,4.62-1.41H74c-.65,2.41-5.61,20.64-5.7,21-.46,1.79-1.62,3-4.37,3H62.45c.16-.64,3.75-13.69,3.75-13.69s-7.64,9.6-8.45,10.58a2.23,2.23,0,0,1-1.89.85c-.35,0-.77,0-1.27,0-.79,0-1.15-.15-1.38-1-.29-1-3-10.4-3-10.4s-.35,1.59-.79,3.24c-1,3.55-1.6,6-2,7.35-.48,1.78-1.75,3.05-4.31,3.05H41.69Z"/><path class="cls-4" d="M95.33,30.24h1.31c-1,3.94-2.81,10.38-4.75,17.46C90.71,52,86.75,54.33,80.3,54.33c-5.87,0-8.75-3.43-7.75-7,.9-3.24,3.43-12.7,3.78-14,.49-1.83,1.87-3,4.62-3h1.47L77.56,47.76A1.14,1.14,0,0,0,78,49.17a6.47,6.47,0,0,0,3.4.87,9.05,9.05,0,0,0,4.44-1,1.89,1.89,0,0,0,.76-1.12c.82-2.92,3.7-13.23,4.07-14.58C91.22,31.47,92.59,30.24,95.33,30.24Z"/><path class="cls-3" d="M118.77,42a4.16,4.16,0,0,1,2.12,3.89,8.85,8.85,0,0,1-.29,2.24c-1.3,5.09-6,6.16-12.07,6.16-2.28,0-4.83-.06-7.62-.29L105,30.56c3-.22,5.5-.32,7.59-.32,6.16,0,9.86,1,9.86,5.69A6.3,6.3,0,0,1,118.77,42Zm-10,1.8h-.38l-1.17,6.23c.76,0,1.49,0,2.28,0,3.16,0,5.62-.57,5.62-3.95C115.14,43.87,113.5,43.83,108.79,43.83Zm3.57-9.32c-.76,0-1.52,0-2.31,0l-1,5.66h1.42c3.89,0,6.32-.19,6.32-3.54C116.75,34.73,115.17,34.51,112.36,34.51Z"/><path class="cls-3" d="M142.77,34.86H132.69L131.74,40h9.42l-.7,4.11H131l-1,5.66h10.08l-.73,4.3h-16l4.14-23.48h16Z"/><path class="cls-3" d="M164.68,34.89h-6.8L154.48,54h-5.94l3.41-19.15h-6.79l.73-4.33h19.53Z"/></g></g></svg>