<!-- Generated by IcoMoon.io -->
<svg version="1.1" xmlns="http://www.w3.org/2000/svg" width="32" height="32" viewBox="0 0 32 32">
<title>discipline-trot-monte</title>
<path d="M14.5 20.25l-0.125 0.313q-0.125 0.438-0.063 0.625 0.063 0.063 0.125 0.438 0.063 0.25 0.188 0.313 0.25 0.063 0.438 0.25 0.25 0.25 0.625 0.313 0.313 0.063 0.625 0.313 0.063 0 0.219 0.094t0.219 0.125 0.125 0.031q0.063 0.063 0.156 0.094t0.219 0.094 0.188 0.125q0.25 0.063 0.313 0.063 0.063 0.063 0.125 0 0.188-0.063 0.375-0.063 0.25 0 0.25-0.188 0-0.125 0.313-0.563 0.313-0.375 0.375-0.813v-0.281t0.031-0.344 0.031-0.375q0.125-0.563 0.25-0.625 0.063-0.125-0.031-0.219t-0.406-0.156q-1.313-0.063-1.375-0.063l-0.438-0.125h-0.125l-0.313-0.125q-0.25 0-0.531-0.063t-0.656-0.094-0.688-0.094q-0.125 0.063-0.125 0.188-0.125 0.438-0.313 0.813zM22.813 20.25h-0.188q0-0.438-0.688-0.25l-0.75 0.375q-0.375 0.375-0.938 1.75-0.625 1.375-1.063 1.813h-0.938q-0.375 0.125-0.5 0.125-0.25 0.063-0.25 0.188 0.063 0.375 0.125 1h-0.25q-0.25 0-0.656-0.156t-0.469-0.344q-0.125-0.188 0.063-0.375 0.188-0.063 0.188-0.313h-0.688q-0.5 0.063-0.875 0-0.125-0.063-0.125-0.188l-0.063-0.125q-0.25 0-0.563-0.125-0.188 0-0.188-0.063 0.125-0.125 0.188-0.313 0-0.063 0.063-0.25 0-0.063-0.125-0.156t-0.188-0.125-0.188-0.125-0.188-0.156q-0.625-0.375-0.75-0.5-0.438-0.188-0.188-0.75 0.063-0.188 0.25-1.063 0.125-0.438-0.063-0.875t-0.625-0.313q-0.313 0.063-0.688 0.656t-0.688 0.656q-2.688 0.813-5.563 1.938-0.25 0.25-1.438 1.063l-0.469 0.313t-0.406 0.25q-0.438 0.25-0.563 0.25 0-0.188-0.625-0.188-0.813 0-1-0.375l0.313-0.375q0.563-0.5 0.875-0.5l0.094 0.125t0.094 0.188q0.313 0 1.813-0.938 1.375-0.938 1.625-1.313 0.063 0 0.125-0.063l0.063-0.063q0.063 0 0.125-0.063l0.063-0.063q1.563-0.313 1.938-1.25 0.188-0.438 0.25-1.063 0.063-0.75 0.25-1.5 0.125-0.375 0.375-0.75 0.375-0.625 0.438-0.688-0.188-0.375-1 0.125l-0.938 0.75q-2.813 2-5.625 2h-0.438l-0.5 0.063-0.688 0.063q0.125-0.125 0.25-0.438 0.125-0.063 0.281-0.313t0.281-0.375q-0.125 0-0.625-0.125v-0.125q0.563-0.25 2.125-0.25 0.313-0.188 0.625-0.5 0.5-0.5 1.125-0.438t1.063-0.563 1.375-0.625q0.625-0.063 1.875 0.125 0.25 0.063 0.875 0.063 0.438-0.188 1-0.813 0.688-0.5 1.063-0.563 0.438-0.125 2.375 0 0.063 0.063 0.563 0.094t0.813 0.031q0.688 0.125 0.813 0.063l0.188-0.25 0.125-0.188 0.5 0.125q0.313 0.125 0.563 0.125 0.125 0 0.813-0.063 0.563-0.063 0.563-0.25v-0.094t-0.063-0.031q-0.375-0.25-0.75-0.313-1.375-0.125-1.875-0.313-0.5-0.25-0.563-0.625 0-1.5 1.688-2.5 1.375-0.813 3.188-0.875v-0.313q0-0.563 0.344-0.906t0.906-0.344q0.25 0 0.5 0.094t0.406 0.25 0.25 0.406 0.094 0.5q0 0.125 0.063 0.188t-0.063 0.188q0.125 0.063 0.188 0h0.188q-0.063 0.063-0.156 0.094t-0.156 0.031q-0.188 0.125-0.25 0.125l-0.063 0.063v0.063l0.031 0.031t0.031 0.094 0.063 0.063q-0.438 0-0.438 0.688 0.063 0.125-0.125 0.125h-0.313l-0.313 0.438-0.375 0.375q-0.063 0.313 0.063 0.5 0.063 0.313 0.063 0.438 0.375 0.125 0.5 0.125l0.5 0.125q0.313-0.063 1.75-0.875 1.25-0.688 1.813-0.688 0.688-0.625 0.063-1.188v-0.125t-0.063-0.125h0.063l0.063 0.063v-0.188q0.063-0.063 0.063-0.125 0.25 0 0.688 0.5 0.625 0.625 0.75 0.688v0.063l0.813 0.438q1.25 0.75 2.313 1.563l0.75 0.563v0.688l-0.313 0.375q-0.063 0-0.125 0.094t-0.125 0.156l-0.125 0.125q-0.313 0-0.688-0.125-0.813-0.313-1.625-0.438-1.438-0.313-2.313 0.688-1.063 1.125-1.438 3.188-0.25 1-0.25 1.5 0.75 0.688 1.625 1l1.75 0.75 2.813 1.875q0.063 0.063 0.5 0.188 0.25 0.125 0.5 0.313 0.063 0.063 0 0.063t-0.063 0.063q0.563 0.5 0.563 0.563-0.063 0.063-0.219 0.094t-0.375 0.063-0.344 0.094l-0.625 0.125q-0.125-0.25-0.125-0.313-0.125-0.313-0.125-0.563-0.25 0-0.938-0.625-0.688-0.563-1.25-0.625-0.625 0-1.688-0.438l-0.813-0.375q-0.5-0.188-1.688-0.438h-0.938z"></path>
</svg>
