<!-- Generated by IcoMoon.io -->
<svg version="1.1" xmlns="http://www.w3.org/2000/svg" width="32" height="32" viewBox="0 0 32 32">
<title>discipline-trot</title>
<path d="M5.25 19.063q-0.438-0.313-1.5-0.125-1.125 0.188-1.375 0.625 0.5 0 0.875 0.25 0.5 0.375 0.75 0.438 0.813-1.063 1.25-1.188zM19.375 20.25v-1.688l-0.688-0.313q-0.375-0.125-0.688-0.188-0.125 0.813-0.438 1.438-0.313 0.75-0.563 1.375 0.813 1.375 0.375 3.313 1.438-0.125 1.75-2.125 0.25-0.938 0.25-1.813zM11.875 18.625q0.25-0.063 0.375-0.125t0.438 0v-0.563q-0.063-0.188-0.375-0.25-0.375 0.688-0.438 0.938zM17.5 19.25l0.5-1.313q-0.188-0.188-0.75-0.5-0.563-0.25-0.875-0.375-0.188 0.5-1.25 1.188-1.063 0.813-1.188 1.375 1.75-0.75 3.063 1 0.188-0.375 0.5-1.375zM9.5 18.375q0.5-0.063 0.75 0.063t0.625 0.063q0.063-0.125 0.375-0.313 0.563-0.25 0.875-0.563 0.188-0.125 0.25-0.5-1-0.438-1.813-0.063-0.625 0.5-1.063 1.313zM7.563 15.625q0.813-0.188 0.875-0.625-0.625-0.813-1.063-0.875-0.125 0.938 0.188 1.5zM32.125 23.813v0.125q-1.125 0.063-1.5-0.313 0.063-1.25-0.688-2.438-0.125-0.188-0.375-0.531t-0.375-0.469q-0.5-0.625-0.625-1-1-0.375-2.5-0.375-1.688-0.063-2.313-0.438-0.813 0.75-2.25 0.938-0.563 0.688-1.063 2.188-0.063 0.25-0.188 0.656t-0.188 0.594q-0.188 0.75-0.375 1.25-0.563 0.063-1.25 0.625-0.688 0.625-1.375 0.563-0.25 0.938-1.813 1.75-1.688-0.438-2.313-1.875-0.25-0.5-0.25-2.125 0-1.25-0.438-1.75-0.063 0.125-0.281 0.531t-0.344 0.656q-0.563 1.375-1.625 2.125-0.75 0.313-1.5 0.313-0.125-0.813 0.188-1.313 0.313-0.125 0.563 0.063 0.125 0.188 0.438 0.188 0.313-0.438 1.25-2.25 0.875-2 1.125-2.313-3.5-0.563-4.688-0.5-2.688 0.125-3.313 1.688 1.063 1.813 0.688 4.25-0.5 2.688-3.188 2.25-1.813-1.063-1.5-4.25 0.125-1.313 0.688-2.313t1.375-1.313q0.25-0.188 0-0.25l-0.063-0.063q-0.063-0.063 0-0.25 0.75-0.25 2.188-1.25-0.438-0.25-0.438-0.813-0.063-0.25 0-0.563 0-0.438-0.063-0.625-0.125-0.813-0.375-1.25-0.313-0.563-0.25-1 0.125-0.375 0.563-0.875 0.5-0.375 0.688-0.813-0.063-0.063-0.156-0.125t-0.156-0.156-0.094-0.219-0.063-0.219-0.031-0.25v-0.906q0.5-0.688 1.188-0.688t1.063 0.5q0.438 0.5 0.438 1.219t-0.563 1.344q1.688 1.5 4.375 1.188 0.438-0.563 1.125-0.813 0.25-0.125 0.75-0.188 1.313-0.188 2.313-0.75 0.938-0.563 3.125-0.563t3.375-0.313q0.688-0.188 1.313-0.688 0.313-1.188 1.688-2 0.75-0.438 1.188-0.688 0.813-0.375 1.25-0.625 0-0.125-0.125-0.25-0.188-0.375-0.188-0.688-0.063-0.063 0.063-0.188 0.125 0.063 0.313 0.188 0.438 0.438 0.688 0.563 0.125 0.125 0.313 0 0.125 0 0.125-0.125v-0.625q0-0.125 0.125-0.125 0.875 1.125 2.063 3 0.938 1.5 2.125 3.063-0.625 1.625-2.375 1.063 0-0.125 0.063-0.188v-0.188q0-0.25-0.313-0.188-0.25-0.063-1.125-0.438-0.625-0.375-1.313-0.313-0.438 0.375-0.688 1.125-0.313 0.813-0.563 1.375 0.563 0.5 0.563 1.5-0.063 0.938-0.375 1.688 0.75 0.938 3.188 1.813 0.25 0.5 0.813 1.375 1.125 1.688 1.625 2.625 0.313 0.5 0.625 1.438z"></path>
</svg>
