<!-- Generated by IcoMoon.io -->
<svg version="1.1" xmlns="http://www.w3.org/2000/svg" width="30" height="32" viewBox="0 0 30 32">
<title>discipline-obstacle</title>
<path d="M19.438 15.625q0.5 0 0.563-0.375v-0.313q-0.063 0.063-0.188 0.125l-0.25 0.125q-0.25 0.188-0.313 0.375 0.063 0.063 0.188 0.063zM22.438 14.688l0.063-0.313h-0.063q-0.063 0-0.063-0.063-0.438 0-0.813 0.625-0.188 0.313-0.188 0.5-0.063 0.25 0.094 0.281t0.344-0.156q0.188-0.25 0.625-0.875zM23.063 12.063q0.375 0 0.531-0.125t0.094-0.563q0-0.188-0.5-0.188-0.063 0-0.188 0.031t-0.188 0.031h-0.313q-0.75 0.063-0.75 0.125-0.063 0.063 0.031 0.156t0.219 0.156q0.188 0.125 1.063 0.375zM22.875 10.625q0.313 0 0.125-0.313-0.313-0.313-0.563-0.25-0.5 0.063-0.063 0.313 0.25 0.25 0.5 0.25zM24.25 8.563q0-0.063-0.125-0.188h-0.063q0.063 0.188 0.188 0.188zM16.688 6.75h0.375q0.313 0 0.313-0.063 0-0.25-0.438-0.25-0.563 0-0.563 0.25 0.063 0.063 0.313 0.063zM27.688 3.375l0.313-0.313 0.063 0.5q0 0.688 0.438 1.188h0.25l0.5-0.125q0.188-0.063 0.688-0.25l-0.375 0.438-0.25 0.375-0.25 0.313q-0.563 0.938-0.063 1.375 0.313 0.313 0.125 0.625-0.313 0.438-0.25 1.25 0 0.125 0.031 0.25t0.031 0.25v0.25q0.063 0.188 0 0.75t0.188 0.75q0.25 0.25 0.063 0.75t-0.5 0.625q-0.063 0-0.125 0.25-0.188 0.375-0.438 0.313h-0.375q-0.625-0.063-0.875-0.438-0.063-0.125-0.188-0.25l-0.25-0.5q-0.125-0.313-0.125-0.375-0.125-0.25-0.25-0.313-0.063 0-0.125-0.188-0.063-0.063-0.063-0.125-0.063-0.438-0.688-0.688-0.75-0.25-0.875-0.438t-0.688-0.5q-0.625-0.25-0.688 0.125-0.125 0.438 0.313 0.75 0.438 0.563 0.5 0.75 0.063 0.313 0.25 0.375 0.188 0.125 0.125 0.406t-0.188 0.406q-0.125 0.063-0.094 0.125t0.156 0.125q0.5 0.313 0.25 0.938-0.063 0.188-0.313 0.5-0.188 0.375-0.188 0.438-0.063 0.5-0.75 1.563-0.313 0.375-0.5 0.75-0.188 0.313-0.875 0.375-0.313 0.125-0.375 0.188t-0.188 0.125-0.188 0.125q-0.688 0.063-1.75-0.125-0.688-0.125-2 0.125-0.25 0-0.5 0.188-0.313 0.25-0.5 0.25-0.375 0.063-0.75 0.375t-0.875 0.375q-0.313 0.063-1.375 0.375-0.25 0-0.563 0.188-0.313 0.063-0.313 0.125-0.063 1.688-1.563 4-0.438 0.75-1.25 1.688-0.438 0.625-0.625 0.75-0.313 0.188-0.375 0.875-0.063 0.25-0.063 0.563-0.063 0.313-0.188 0.313-0.313 0.25-0.063 1.563 0.125 1.25-0.313 1.5l-0.25 0.438q-0.188 0.375-0.25 0.438-0.125 0.25-0.313 0.313t-0.25 0.25q-0.125 0.188-0.313-0.063-0.563-0.625-0.438-1.313 0.063-0.375 0.375-0.438 0.438-0.063 0.625-0.875 0.063-0.313 0.063-1 0-0.313 0.063-0.688v-1.188q0-0.813-0.063-1.125-0.063-0.438-0.188-0.438-0.313 0-0.625 0.563-0.313 0.438-0.375 0.875-0.563 1.563-0.25 3.5 0.063 0.75-0.188 1.188-0.25 0.313-0.563 0.938-0.375 0.563-0.844 0.375t-0.344-0.813q0-0.375 0.438-0.688 0.313-0.063 0.313-0.438-0.063-0.375 0.125-1.188v-0.563q-0.063-0.563 0-1.125v-1.063q0-0.063-0.063-0.375-0.313-0.625-0.25-1.188 0-0.313 0.25-0.375 0.438 0 0.688-1.188 0.188-1-0.125-1.313-0.188-0.188-0.25-0.438l-0.25-0.688q-0.313-0.688-0.375-1.25-0.063 0.063-0.063 1.438-0.063 1.813-0.313 3.625 0 0.125-0.188 0.188t-0.188-0.125l-0.563 0.688q-0.188 0.25-0.438 0.313-0.313 0.063-0.375 0.25-0.063 0.125-0.219 0.125t-0.313-0.063l-0.156-0.063h-0.313q-0.25-0.125-0.375 0.188l-0.5 0.75q-0.313 0-0.125-0.438 0.25-0.688 0.938-1.875 0.375-0.625 0.375-1.063-0.063-0.313 0.188-0.375 0.188-0.063 0.344-0.219t0.188-0.313 0.125-0.438 0.094-0.344q0.063-0.563 0.063-1 0-1.5 0.313-2.375 0.125-0.5 0.563-0.875 0.188-0.188 0.375-0.5 0.313-0.25 0.5-0.313 1-0.5 1.063-0.75 0.438-0.875 1.063-1.438 0.938-0.875 1.5-1 1-0.188 1.875-0.875 0.563-0.313 0.75-0.563 0.188-0.375 0-0.563-0.438-0.438 0.563-0.625l0.688-0.125q0.375-0.063 0.5-0.313 0.063 0 0.438-0.688 0.375-0.438 0.375-0.75 0-0.438-0.563-0.75-0.625-0.438-0.625-0.75-0.125-1.688 0.875-2.375 0.063-0.063 0.375-0.125 0.375 0 0.438-0.188t0.5-0.563l0.25-0.25t0.281-0.219 0.219-0.219l1.125-0.938q0.125-0.188 0.281-0.281t0.25-0.094 0.406 0.031 0.375 0.031h0.469t0.313-0.156 0.094-0.531q0-1.25 1.313-1.313 1.188 0 1.375 1.25 0 0.188 0.313 0.313 0.25 0.188 0.188 0.375-0.063 0.125-0.125 0.125h-0.25q-0.375 0-0.375 0.313 0 0.875-1 1.25 0.438 0.438-0.188 1.563l0.125 0.063q0.313 0 0.688-0.063 0.063 0 0.125-0.063 0.125 0 0.125-0.063 0.063 0-0.063-0.063-0.063-0.063 0-0.125 0.063-0.125 0.25-0.063 0.125 0.063 0.25-0.063l-0.063-0.063q-0.125-0.063-0.125-0.125t0.125-0.063l0.25 0.063q0.438 0.188 0.438 0 0.188-0.313 0.625-0.25 0.375 0.063 0.438-0.375 1.438 0 2.813-0.063 0.563 0 1.188 0.063 0.188 0.063 0.625-0.063 0.188-0.313 0.625-0.688z"></path>
</svg>
