<!-- Generated by IcoMoon.io -->
<svg version="1.1" xmlns="http://www.w3.org/2000/svg" width="32" height="32" viewBox="0 0 32 32">
<title>discipline-plat</title>
<path d="M19.813 28.188h-0.25l-0.375-0.125-0.438-0.125q0.25-0.313 0.063-0.625-0.5-0.25-0.813-0.125-1.313-1.375-2-2-0.938-0.875-1.813-2-0.625-3.938-3-4.563-0.125 0.5-0.25 0.75-0.438 0.813-0.438 1.5-0.063 0.813 0.75 1.375 0.563 0.375 0.938 0.5 1.188 0.563 1.625 0.938 0.063 0.375 0.25 0.688 0.313 0.813 0.563 1.438 0.063 0.375 0 0.813-0.625 0.375-1.125-0.375-0.188-0.25-0.188-0.625 0-0.25 0.313-0.563-0.688-0.25-1.375-0.875-0.75-0.75-1.5-1l-0.563-0.25q-0.625-0.188-1.313-0.688-0.563-0.313-0.25-0.938l0.25-0.5q0.438-0.688 0.5-1 0.063-0.375 0-0.75-0.063-0.313 0-0.813-0.25-0.313-0.75-0.625-1-0.688-1.313-1.563-0.188-0.563 0.063-1.313l-0.563 0.063q-0.063 0-0.25 0.063t-0.313 0.063q-0.375 0.5-0.625 0.75-0.375 0.375-0.563 0.938-0.063-0.313-0.188-0.375-0.625 0.063-1.125 0.688l-0.438 0.438q-0.188 0.313-0.5 0.438l-0.063-0.063q0-0.063 0.063-0.125 0.125-0.125 0.063-0.25l-1-0.25q-0.563-0.125-0.938-0.375 0-0.438-0.313-0.688l-0.375-0.25q-0.188-0.125-0.25-0.313 0.063 0 0.25 0.031t0.25 0.031q0.125 0.063 0.438 0.063 0.063-0.25 0-0.5-0.063-0.188 0-0.375 0.188-0.063 0.25 0.063t0.188 0q-0.063-0.375-0.125-0.438-0.188-0.125-0.125-0.438 0.188 0.313 1.125 0.688 0.375 0.125 0.688 0.125 0.625 0 0.875-0.5 0.063-0.25 0.813-0.75 0.5-0.25 1.5-0.625 0.813-0.188 1.188-0.125 0.313 0.063 0.5 0 0.375-0.063 0.875-0.563 0.563-0.563 0.813-0.75 0.438-0.188 1-0.688 0.688-0.563 1.938-0.5l0.875 0.125q0.938 0.188 2 0.125 0.125-0.125 0.063-0.313-0.063-0.125 0.125-0.125 0.563-0.063 1.125 0.125 0.75 0.375 1 0.438-0.188-0.563-0.688-0.938-0.813-0.563-1.75-1.75-0.938-0.938-0.375-1.813 0.5-0.75 1.188-1.188 0.063-0.063 0.188-0.156t0.219-0.156 0.219-0.125q1-0.625 2.688-0.563 1.625 0.063 2.813 0.688 0.063-0.063 0.25-0.219t0.25-0.188 0.25-0.156 0.281-0.125 0.344-0.063 0.313 0.063q0.875 0.125 1.125 1 0.125 0.375 0.125 0.813 0 0.188 0.031 0.469t0.031 0.406l-0.5-0.125q-0.313-0.125-0.5 0t-0.188 0.313q0 0.25-0.188 0.375-0.438-0.125-0.688 0.063t-0.563 0q-0.5 0.563-0.25 1.688 0.25 0.938 0.938 1.438 1-0.313 1.875-1.875 0.75-1.5 2-1.688 0-0.063-0.063-0.406t-0.063-0.531q-0.063-0.375 0.438-0.625 0.188 0.063 0.25 0.375 0 0.375 0.125 0.563 0.688 0.25 1.094 0t0.531-0.813q0.125 0.375-0.125 0.813l-0.063 0.25q-0.125 0.25-0.063 0.375 0.063 0.438 0.438 0.813 0.75 0.563 0.75 1.25 0 0.625 0.5 1.188 0.813 1 0.938 1.188 0.063 0.188 0.188 0.688-0.063 0.063-0.063 0.125-0.188 0.438-0.313 0.656t-0.438 0.438-0.813 0.156q-1.438-1.75-3.313-1.5-0.375 1-1.188 3.063 0.313 0.938 0.125 2.125t-0.75 1.813q2 0.938 3.063 1.188 0.438 0.313 0.438 0.938 0 0.5 0.125 1.125-0.125 0.563-0.125 1.188-0.063 1.188-0.813 2.625-0.375 0.75-1 1-0.5-0.375-0.375-1 0.063-0.438 0.375-0.625 0.438-0.188 0.688-0.313-0.188-0.813 0.25-3.625-0.313-0.438-1.125-0.438-0.5 0-0.75 0.063h-0.813q-0.75 0-1.188 0.063-0.5 0.063-1-0.063-0.375-0.063-0.438-0.313-0.188-0.25-0.313-0.313-0.125 0-0.188 0.031t-0.188 0.063-0.125 0.094q-0.125 0.125-0.563 0.125 0.313 0.875 0.688 1.625 0.438 0.875 0.688 1.75-0.188 0.188-0.313 0.5-0.188 0.5-0.813 0.375-0.188-0.063-0.438 0-1.75 0.313-2.313 0-0.188-0.063-0.25-0.25-0.188-0.375-0.75-0.688-0.063-0.063-0.188-0.125t-0.219-0.094-0.156-0.094q-0.625-0.188-0.75-0.688 0.563-0.125 0.938-0.313 0.438-0.188 0.813 0.188v0.375q-0.063 0.125 0.125 0.313 0.313 0.375 1.438 0.375 0.313 0.063 0.875 0.063l0.813 0.125q-0.25-0.75-1.063-1.688-0.938-1-1.188-1.438-0.563-0.313-1.25-1.188-0.438-0.125-1.188-0.25-0.938-0.188-1.25-0.313 0.313 0.75 0.25 1.313-0.125 2 0.563 3.063 0.5 0.875 2.313 2.5 0.813 0.75 1.188 1.188 0.938 0.25 0.938 0.75l-0.375 0.125q-0.25-0.063-0.438 0.063z"></path>
</svg>
