<svg xmlns="http://www.w3.org/2000/svg" viewBox="0 0 470.72 177.45"><defs><style>.cls-1{fill:none;}.cls-2{fill:#da2032;}.cls-3{fill:#fff;}</style></defs><title>Fichier 1</title><g id="Calque_2" data-name="Calque 2"><g id="Calque_1-2" data-name="Calque 1"><g id="logo"><rect class="cls-1" x="0.23" y="0.44" width="470.48" height="177.01"/><path class="cls-2" d="M470.23,0H170S78.05-3.53,21.08,93.83C16.83,101,.41,128.93,0,176.93H304.18s32.67-1.36,68.37-19.47C417.77,134.53,468,83.47,470.23,0Z"/><rect class="cls-2" x="469.47" y="0.44" width="1.25" height="1.25"/><rect class="cls-2" x="0.23" y="176.2" width="1.25" height="1.25"/><path class="cls-3" d="M176.21,118.46h12.87l9.28-52.9H185.5ZM101.46,48.22c-10,0-15,3.8-18.88,7.9-4.73,5-12.21,20.57-12.21,40.89,0,12.6,4.58,19.88,13.48,21.83l10.72,17.91H111s-14.19-16.24-15.76-18A23,23,0,0,0,111.09,108c3.52-5.32,9.11-20,9.11-36.82C120.2,56,113.89,48.22,101.46,48.22Zm-1,53.75c-2.68,5.12-5.75,7.5-9.67,7.5-3.6,0-7.45-1-7.45-13,0-10.7,4.09-26.68,8.41-32.9,2.52-3.57,5.34-5.37,8.39-5.37,4.54,0,7.35,2.12,7.35,12.65C107.46,82,103.81,95.68,100.43,102Zm54-7c0-.14-7.16,13.29-14.68,13.29a2.38,2.38,0,0,1-1.95-.72c-1.15-1.38-.78-4.66-.21-8l6-33.93H130.71l-6,34.88c-1.17,6.88-.41,12,2.25,15.13,2.17,2.56,5.59,3.86,10.14,3.86,8.16,0,13.45-5.81,16-9.43-.09,3.18-.22,8.46-.22,8.46h10.29l9.3-52.9H159.62Zm39.62-49.41a6.82,6.82,0,0,0,0,13.64,6.82,6.82,0,0,0,0-13.64ZM308.44,58.76H321.5l15.16-12.07H318.93Zm72.05,27.62,3.67-20.56H371.48l-3.67,20.56h-20l-2.11,12.24h20L362,119.22H374.7l3.66-20.6h20l2.12-12.24ZM239.43,64.58c-8.73,0-15.18,6.8-18.11,10.59,0-3.3.08-9.62.08-9.62H211l-9.29,52.9h12.86l5.15-29.27c0,.2,8.37-13.3,15.93-13.3,1.57,0,2.59.3,3.11.93.66.79.76,2.32.31,4.84l-6.55,36.81h12.87l6.41-36.6c1-5.88.28-10.38-2.23-13.37C247.4,65.9,244,64.58,239.43,64.58Zm76.66,0a22.73,22.73,0,0,0-17.27,7.73c-5.74,6.37-8.91,16-8.91,27,0,13.14,6.65,20.1,19.23,20.1a37.17,37.17,0,0,0,15.44-3.56l.42-.23,1.91-12.06-1.6.78c-.09,0-8.65,4.15-14.82,4.15-5.7,0-7.59-2.14-7.83-8.57,13.28-.27,30.25-2.81,30.25-19.77C332.9,70.71,326.3,64.58,316.09,64.58ZM303.21,90.79c1.5-9.57,6.09-16.24,11.52-16.24,3.92,0,5.51,1.71,5.51,5.9C320.24,89,312.61,90.29,303.21,90.79ZM278.92,75.22H289.2l3.12-9.67H280.6c.34-1.89,2.88-15.9,2.88-15.9l-13,4.66s-2.44,10-2.74,11.24h-8.71l-1.68,9.67h8.68l-5.12,29a25,25,0,0,0-.4,4.21,11.25,11.25,0,0,0,2.31,7.47c2,2.36,5.21,3.56,9.6,3.56a36.49,36.49,0,0,0,11.7-2.18l.49-.2,1.89-10.87-1.45.43c-1.84.55-7.06,2-9.06,2-1.11,0-1.81-.19-2.13-.58a2.23,2.23,0,0,1-.36-1.47,11.62,11.62,0,0,1,.23-2S278.24,79.06,278.92,75.22Z"/></g></g></g></svg>