<?xml version="1.0" encoding="utf-8"?>
<!-- Generator: Adobe Illustrator 23.0.2, SVG Export Plug-In . SVG Version: 6.00 Build 0)  -->
<svg version="1.1" xmlns="http://www.w3.org/2000/svg" xmlns:xlink="http://www.w3.org/1999/xlink" x="0px" y="0px"
	 viewBox="0 0 841.89 595.28" style="enable-background:new 0 0 841.89 595.28;" xml:space="preserve">
<style type="text/css">
	.st0{display:none;}
	.st1{display:inline;fill:#00AEEF;}
	.st2{display:inline;}
	.st3{display:inline;fill:#EC008C;}
	.st4{display:inline;fill:#FFF200;}
	.st5{fill:none;}
	.st6{fill-rule:evenodd;clip-rule:evenodd;fill:#DA2032;}
	.st7{fill:#FFFFFF;}
</style>
<g id="infos_couleurs" class="st0">
	<path class="st1" d="M339.45,559.32c0,1.57-1.27,2.83-2.84,2.83h-39.68c-1.57,0-2.83-1.27-2.83-2.83v-39.68
		c0-1.57,1.27-2.83,2.83-2.83h39.68c1.57,0,2.84,1.27,2.84,2.83V559.32"/>
	<g class="st2">
		<path d="M362.83,493.76h1.06v7.21h3.46v0.88h-4.51V493.76z"/>
		<path d="M370.67,501.98c-1.56,0-2.78-1.15-2.78-2.99c0-1.94,1.28-3.08,2.88-3.08c1.67,0,2.8,1.21,2.8,2.98
			c0,2.16-1.5,3.1-2.88,3.1H370.67z M370.71,501.19c1.01,0,1.76-0.95,1.76-2.27c0-0.98-0.49-2.22-1.74-2.22
			c-1.24,0-1.78,1.15-1.78,2.26c0,1.27,0.72,2.23,1.74,2.23H370.71z"/>
		<path d="M379.87,501c0,1.34-0.28,2.15-0.83,2.66c-0.58,0.52-1.39,0.7-2.12,0.7c-0.7,0-1.46-0.17-1.93-0.48l0.26-0.82
			c0.38,0.25,0.98,0.47,1.7,0.47c1.08,0,1.87-0.56,1.87-2.04v-0.64h-0.02c-0.31,0.54-0.95,0.97-1.85,0.97
			c-1.44,0-2.47-1.22-2.47-2.84c0-1.97,1.28-3.07,2.63-3.07c1.01,0,1.55,0.52,1.81,1h0.02l0.04-0.86h0.94
			c-0.04,0.41-0.05,0.88-0.05,1.58V501z M378.82,498.32c0-0.17-0.01-0.32-0.06-0.47c-0.19-0.62-0.7-1.13-1.48-1.13
			c-1.01,0-1.73,0.85-1.73,2.21c0,1.13,0.59,2.09,1.72,2.09c0.66,0,1.25-0.41,1.46-1.09c0.06-0.17,0.08-0.37,0.08-0.56V498.32z"/>
		<path d="M383.98,501.98c-1.56,0-2.78-1.15-2.78-2.99c0-1.94,1.28-3.08,2.88-3.08c1.67,0,2.8,1.21,2.8,2.98
			c0,2.16-1.5,3.1-2.88,3.1H383.98z M384.01,501.19c1.01,0,1.76-0.95,1.76-2.27c0-0.98-0.49-2.22-1.74-2.22
			c-1.24,0-1.78,1.15-1.78,2.26c0,1.27,0.72,2.23,1.74,2.23H384.01z"/>
		<path d="M394.7,500.96h-0.02c-0.31,0.56-0.96,1.02-1.9,1.02c-1.36,0-2.46-1.16-2.46-2.94c0-2.17,1.4-3.13,2.63-3.13
			c0.9,0,1.5,0.44,1.79,1.01h0.02l0.04-0.88h1.01c-0.04,0.48-0.05,0.98-0.05,1.6v6.59h-1.06V500.96z M394.7,498.39
			c0-0.16-0.01-0.31-0.05-0.44c-0.17-0.65-0.72-1.2-1.51-1.2c-1.09,0-1.75,0.92-1.75,2.23c0,1.16,0.55,2.16,1.72,2.16
			c0.68,0,1.27-0.42,1.51-1.15c0.05-0.14,0.08-0.35,0.08-0.5V498.39z"/>
		<path d="M402.36,500.26c0,0.6,0.01,1.13,0.05,1.58h-0.94l-0.06-0.95h-0.02c-0.26,0.47-0.89,1.08-1.92,1.08c-0.91,0-2-0.52-2-2.54
			v-3.4h1.06v3.2c0,1.1,0.35,1.86,1.3,1.86c0.71,0,1.2-0.49,1.39-0.97c0.06-0.14,0.1-0.34,0.1-0.54v-3.55h1.06V500.26z"/>
		<path d="M408.2,500.46c0,0.5,0.02,1,0.08,1.39h-0.95l-0.1-0.73h-0.04c-0.31,0.46-0.95,0.86-1.78,0.86c-1.18,0-1.78-0.83-1.78-1.67
			c0-1.4,1.25-2.17,3.49-2.16v-0.12c0-0.48-0.13-1.36-1.32-1.34c-0.55,0-1.12,0.16-1.52,0.43l-0.24-0.71c0.48-0.3,1.19-0.5,1.92-0.5
			c1.79,0,2.22,1.21,2.22,2.38V500.46z M407.17,498.88c-1.15-0.02-2.46,0.18-2.46,1.31c0,0.7,0.46,1.01,0.98,1.01
			c0.77,0,1.26-0.48,1.43-0.97c0.04-0.11,0.05-0.23,0.05-0.34V498.88z"/>
		<path d="M414.91,493.33v7.02c0,0.52,0.01,1.1,0.05,1.5h-0.95l-0.05-1.01h-0.02c-0.32,0.65-1.02,1.14-1.97,1.14
			c-1.4,0-2.5-1.19-2.5-2.95c-0.01-1.94,1.2-3.12,2.6-3.12c0.9,0,1.5,0.42,1.75,0.88h0.02v-3.46H414.91z M413.86,498.4
			c0-0.14-0.01-0.31-0.05-0.46c-0.16-0.66-0.73-1.21-1.52-1.21c-1.09,0-1.74,0.96-1.74,2.23c0,1.19,0.59,2.16,1.72,2.16
			c0.71,0,1.36-0.48,1.55-1.26c0.04-0.14,0.05-0.29,0.05-0.46V498.4z"/>
		<path d="M416.68,497.85c0-0.68-0.01-1.27-0.05-1.81h0.92l0.05,1.14h0.04c0.26-0.78,0.91-1.27,1.62-1.27
			c0.11,0,0.19,0.01,0.29,0.04v0.98c-0.12-0.01-0.23-0.02-0.37-0.02c-0.74,0-1.27,0.56-1.42,1.34c-0.02,0.16-0.04,0.32-0.04,0.5v3.1
			h-1.06L416.68,497.85z"/>
		<path d="M421.14,494.97c-0.4,0-0.66-0.31-0.66-0.68c0-0.37,0.28-0.67,0.68-0.67s0.67,0.3,0.67,0.67c0,0.37-0.26,0.68-0.68,0.68
			H421.14z M420.63,501.85v-5.81h1.06v5.81H420.63z"/>
		<path d="M427.58,501.64c-0.28,0.13-0.89,0.34-1.67,0.34c-1.75,0-2.89-1.19-2.89-2.98c0-1.79,1.22-3.1,3.12-3.1
			c0.62,0,1.18,0.16,1.46,0.31l-0.24,0.8c-0.25-0.13-0.65-0.28-1.22-0.28c-1.33,0-2.05,1-2.05,2.21c0,1.34,0.86,2.17,2.02,2.17
			c0.6,0,1-0.14,1.3-0.28L427.58,501.64z"/>
		<path d="M428.82,493.33h1.06v3.62h0.02c0.17-0.3,0.43-0.58,0.76-0.74c0.31-0.19,0.68-0.3,1.08-0.3c0.78,0,2.03,0.48,2.03,2.48
			v3.46h-1.06v-3.34c0-0.95-0.35-1.73-1.34-1.73c-0.68,0-1.21,0.48-1.42,1.06c-0.06,0.14-0.07,0.3-0.07,0.5v3.5h-1.06V493.33z"/>
		<path d="M435.49,497.85c0-0.68-0.01-1.27-0.05-1.81h0.92l0.05,1.14h0.04c0.26-0.78,0.91-1.27,1.62-1.27
			c0.11,0,0.19,0.01,0.29,0.04v0.98c-0.12-0.01-0.23-0.02-0.37-0.02c-0.74,0-1.27,0.56-1.42,1.34c-0.02,0.16-0.04,0.32-0.04,0.5v3.1
			h-1.06L435.49,497.85z"/>
		<path d="M441.7,501.98c-1.56,0-2.78-1.15-2.78-2.99c0-1.94,1.28-3.08,2.88-3.08c1.67,0,2.8,1.21,2.8,2.98c0,2.16-1.5,3.1-2.88,3.1
			H441.7z M441.73,501.19c1.01,0,1.76-0.95,1.76-2.27c0-0.98-0.49-2.22-1.74-2.22c-1.24,0-1.78,1.15-1.78,2.26
			c0,1.27,0.72,2.23,1.74,2.23H441.73z"/>
		<path d="M445.92,497.61c0-0.61-0.02-1.09-0.05-1.57h0.92l0.05,0.94h0.04c0.32-0.55,0.86-1.07,1.84-1.07
			c0.78,0,1.38,0.48,1.63,1.16h0.02c0.18-0.34,0.42-0.58,0.66-0.76c0.35-0.26,0.72-0.41,1.27-0.41c0.78,0,1.92,0.5,1.92,2.52v3.42
			h-1.03v-3.29c0-1.13-0.42-1.79-1.26-1.79c-0.61,0-1.07,0.44-1.26,0.95c-0.05,0.16-0.08,0.35-0.08,0.53v3.6h-1.03v-3.48
			c0-0.94-0.41-1.6-1.21-1.6c-0.65,0-1.14,0.53-1.31,1.06c-0.06,0.16-0.08,0.34-0.08,0.52v3.5h-1.03V497.61z"/>
		<path d="M456.43,494.97c-0.4,0-0.66-0.31-0.66-0.68c0-0.37,0.28-0.67,0.68-0.67s0.67,0.3,0.67,0.67c0,0.37-0.26,0.68-0.68,0.68
			H456.43z M455.93,501.85v-5.81h1.06v5.81H455.93z"/>
		<path d="M459.33,499.12c0.02,1.43,0.92,2.02,1.98,2.02c0.76,0,1.22-0.13,1.61-0.29l0.19,0.74c-0.37,0.17-1.02,0.37-1.94,0.37
			c-1.78,0-2.86-1.19-2.86-2.93c0-1.76,1.04-3.14,2.74-3.14c1.9,0,2.39,1.67,2.39,2.74c0,0.22-0.01,0.38-0.04,0.5L459.33,499.12z
			 M462.42,498.37c0.01-0.66-0.28-1.72-1.45-1.72c-1.08,0-1.54,0.98-1.62,1.72H462.42z"/>
	</g>
	<g class="st2">
		<path d="M319.46,577.63c-0.37,0.19-1.15,0.38-2.14,0.38c-2.28,0-3.98-1.44-3.98-4.1c0-2.54,1.72-4.25,4.22-4.25
			c1,0,1.64,0.22,1.92,0.36l-0.26,0.85c-0.38-0.19-0.95-0.34-1.62-0.34c-1.9,0-3.16,1.21-3.16,3.34c0,1.99,1.14,3.25,3.1,3.25
			c0.65,0,1.3-0.13,1.72-0.34L319.46,577.63z"/>
	</g>
	<path class="st3" d="M403.45,559.32c0,1.57-1.27,2.83-2.84,2.83h-39.68c-1.57,0-2.83-1.27-2.83-2.83v-39.68
		c0-1.57,1.27-2.83,2.83-2.83h39.68c1.57,0,2.84,1.27,2.84,2.83V559.32"/>
	<g class="st2">
		<path d="M384.64,574.33c-0.06-1.13-0.13-2.5-0.13-3.49h-0.02c-0.29,0.94-0.61,1.96-1.02,3.07l-1.43,3.92h-0.79l-1.32-3.85
			c-0.38-1.15-0.7-2.18-0.92-3.14h-0.02c-0.02,1.01-0.08,2.35-0.16,3.58l-0.22,3.47h-1l0.56-8.09h1.33l1.38,3.91
			c0.34,1,0.6,1.88,0.82,2.72h0.02c0.22-0.82,0.5-1.7,0.86-2.72l1.44-3.91h1.33l0.5,8.09h-1.03L384.64,574.33z"/>
	</g>
	<path class="st4" d="M467.45,559.32c0,1.57-1.27,2.83-2.84,2.83h-39.68c-1.57,0-2.83-1.27-2.83-2.83v-39.68
		c0-1.57,1.27-2.83,2.83-2.83h39.68c1.57,0,2.84,1.27,2.84,2.83V559.32"/>
	<g class="st2">
		<path d="M443.62,577.88v-3.43l-2.57-4.66h1.2l1.14,2.23c0.3,0.61,0.55,1.1,0.8,1.67h0.02c0.22-0.53,0.5-1.06,0.82-1.67l1.16-2.23
			h1.18l-2.7,4.64v3.44H443.62z"/>
	</g>
	<path class="st2" d="M531.45,559.32c0,1.57-1.27,2.83-2.84,2.83h-39.68c-1.57,0-2.83-1.27-2.83-2.83v-39.68
		c0-1.57,1.27-2.83,2.83-2.83h39.68c1.57,0,2.84,1.27,2.84,2.83V559.32"/>
	<g class="st2">
		<path d="M505.82,569.79h1.04v3.9h0.04c0.22-0.31,0.43-0.6,0.64-0.86l2.47-3.04h1.3l-2.93,3.43l3.16,4.66h-1.24l-2.65-3.97
			l-0.78,0.89v3.08h-1.04V569.79z"/>
	</g>
</g>
<g id="logo">
	<rect x="186.06" y="209.61" class="st5" width="470.48" height="177.01"/>
	<g>
		<path d="M656.06,209.19H355.79c0,0-91.91-3.55-148.88,93.81c-4.25,7.14-20.67,35.1-21.08,83.1c51.06,0,304.18,0,304.18,0
			s32.67-1.36,68.37-19.47C603.6,343.7,653.83,292.64,656.06,209.19z"/>
		<g>
			<rect x="655.3" y="209.61" class="st6" width="1.25" height="1.25"/>
			<rect x="186.06" y="385.37" class="st6" width="1.25" height="1.25"/>
		</g>
		<path class="st7" d="M362.04,327.63h12.87l9.28-52.9h-12.86L362.04,327.63z M287.29,257.39c-10,0-14.99,3.8-18.88,7.9
			c-4.73,5.03-12.21,20.57-12.21,40.89c0,12.6,4.58,19.88,13.48,21.83c0.29,0.49,10.72,17.91,10.72,17.91h16.44
			c0,0-14.19-16.24-15.76-18.05c6.62-1.25,11.8-4.5,15.84-10.68c3.52-5.32,9.11-20.01,9.11-36.82
			C306.03,265.13,299.72,257.39,287.29,257.39z M286.26,311.14c-2.68,5.12-5.75,7.5-9.67,7.5c-3.6,0-7.45-1-7.45-13.02
			c0-10.7,4.09-26.68,8.41-32.9c2.52-3.57,5.34-5.37,8.39-5.37c4.54,0,7.35,2.12,7.35,12.65
			C293.29,291.16,289.64,304.85,286.26,311.14z M340.29,304.09c0.02-0.14-7.16,13.29-14.68,13.29c-0.9,0-1.54-0.23-1.95-0.72
			c-1.15-1.38-0.78-4.66-0.21-8.01l5.96-33.93h-12.87l-6,34.88c-1.17,6.88-0.41,11.98,2.25,15.13c2.17,2.56,5.59,3.86,10.14,3.86
			c8.16,0,13.45-5.81,16.02-9.43c-0.09,3.18-0.22,8.46-0.22,8.46h10.29l9.3-52.9h-12.87L340.29,304.09z M379.91,254.68
			c-3.78,0-6.74,3-6.74,6.84c0,3.8,2.96,6.8,6.74,6.8c3.72,0,6.63-2.99,6.63-6.8C386.55,257.68,383.64,254.68,379.91,254.68z
			 M494.27,267.93h13.06l15.16-12.07h-17.73L494.27,267.93z M566.32,295.55l3.67-20.56h-12.68l-3.67,20.56h-20.04l-2.11,12.24h20.04
			l-3.68,20.6h12.68l3.66-20.6h20.03l2.12-12.24H566.32z M425.26,273.75c-8.73,0-15.18,6.8-18.11,10.59
			c0.03-3.3,0.08-9.62,0.08-9.62h-10.38l-9.29,52.9h12.86l5.15-29.27c-0.04,0.2,8.37-13.3,15.93-13.3c1.57,0,2.59,0.3,3.11,0.93
			c0.66,0.79,0.76,2.32,0.31,4.84l-6.55,36.81h12.87l6.41-36.6c1.04-5.88,0.28-10.38-2.23-13.37
			C433.23,275.07,429.82,273.75,425.26,273.75z M501.92,273.75c-6.74,0-12.71,2.68-17.27,7.73c-5.74,6.37-8.91,15.96-8.91,27.01
			c0,13.14,6.65,20.1,19.23,20.1c8.41,0,15.16-3.42,15.44-3.56l0.42-0.23l1.91-12.06l-1.6,0.78c-0.09,0.04-8.65,4.15-14.82,4.15
			c-5.7,0-7.59-2.14-7.83-8.57c13.28-0.27,30.25-2.81,30.25-19.77C518.73,279.88,512.13,273.75,501.92,273.75z M489.04,299.96
			c1.5-9.57,6.09-16.24,11.52-16.24c3.92,0,5.51,1.71,5.51,5.9C506.07,298.13,498.44,299.46,489.04,299.96z M464.75,284.39
			c1.34,0,10.28,0,10.28,0l3.12-9.67c0,0-9.89,0-11.72,0c0.34-1.89,2.88-15.9,2.88-15.9l-12.97,4.66c0,0-2.44,9.99-2.74,11.24
			c-1.23,0-8.71,0-8.71,0l-1.68,9.67c0,0,6.99,0,8.68,0c-0.36,2.03-5.12,28.96-5.12,28.96c-0.26,1.51-0.4,2.92-0.4,4.21
			c0,3.14,0.77,5.64,2.31,7.47c1.98,2.36,5.21,3.56,9.6,3.56c5.98,0,11.46-2.09,11.7-2.18l0.49-0.2l1.89-10.87l-1.45,0.43
			c-1.84,0.55-7.06,1.99-9.06,1.99c-1.11,0-1.81-0.19-2.13-0.58c-0.25-0.28-0.36-0.77-0.36-1.47c0-0.55,0.08-1.23,0.23-2.04
			C459.59,313.67,464.07,288.23,464.75,284.39z"/>
	</g>
</g>
</svg>
