<svg xmlns="http://www.w3.org/2000/svg" viewBox="0 0 1280 1280" width="1280" height="1280" preserveAspectRatio="xMidYMid meet" style="width: 100%; height: 100%;"><g clip-path="url(#animationMask_PykNMECTtI)"><g clip-path="url(#cp_kD2JIWLG)" transform="matrix(5.0389,0,0,5.0389,-4197.3345,-2041.0005)" opacity="1" style="display: block;"><g clip-path="url(#cp_tKkRk4Pw)" transform="matrix(1,0,0,1,0,0)" opacity="1" style="display: block;"><g filter="url(#AbmsdaTqMN)" transform="matrix(0.95,0,0,0.95,609.165,360.7778)" opacity="1" style="display: none;"><g opacity="1" transform="matrix(1,0,0,1,443.3,245.556)"><path fill="rgb(27,153,139)" fill-opacity="1" d=" M-1.3650000095367432,16.33099937438965 C-10.385000228881836,15.57699966430664 -17.084999084472656,7.6529998779296875 -16.33099937438965,-1.3660000562667847 C-15.576000213623047,-10.38599967956543 -7.6529998779296875,-17.086000442504883 1.3660000562667847,-16.33099937438965 C10.385000228881836,-15.57699966430664 17.084999084472656,-7.6539998054504395 16.33099937438965,1.3650000095367432 C15.57699966430664,10.385000228881836 7.6539998054504395,17.086000442504883 -1.3650000095367432,16.33099937438965z"></path></g></g><g filter="url(#L5AZCUXGVB)" transform="matrix(0.95,0,0,0.95,609.165,360.7778)" opacity="1" style="display: none;"><g opacity="1" transform="matrix(1,0,0,1,443.3,245.556)"><path fill="rgb(27,153,139)" fill-opacity="1" d=" M-1.3650000095367432,16.33099937438965 C-10.385000228881836,15.57699966430664 -17.084999084472656,7.6529998779296875 -16.33099937438965,-1.3660000562667847 C-15.576000213623047,-10.38599967956543 -7.6529998779296875,-17.086000442504883 1.3660000562667847,-16.33099937438965 C10.385000228881836,-15.57699966430664 17.084999084472656,-7.6539998054504395 16.33099937438965,1.3650000095367432 C15.57699966430664,10.385000228881836 7.6539998054504395,17.086000442504883 -1.3650000095367432,16.33099937438965z"></path></g></g><g filter="url(#qy5Ijl4hpC)" style="display: block;" transform="matrix(0.9567,0.0216,-0.0216,0.9567,603.5919,344.908)" opacity="1"><g opacity="1" transform="matrix(1,0,0,1,302.7,115.605)"><path fill="rgb(27,153,139)" fill-opacity="1" d=" M-1.3660000562667847,16.33099937438965 C-10.385000228881836,15.576000213623047 -17.084999084472656,7.6539998054504395 -16.33099937438965,-1.3650000095367432 C-15.57699966430664,-10.385000228881836 -7.6529998779296875,-17.084999084472656 1.3650000095367432,-16.329999923706055 C10.385000228881836,-15.576000213623047 17.084999084472656,-7.6539998054504395 16.33099937438965,1.3650000095367432 C15.57699966430664,10.385000228881836 7.6539998054504395,17.084999084472656 -1.3660000562667847,16.33099937438965z"></path></g></g><g filter="url(#UkbgwFe2po)" style="display: block;" transform="matrix(0.9567,-0.0216,0.0216,0.9567,595.6376,361.1925)" opacity="1"><g opacity="1" transform="matrix(1,0,0,1,302.7,115.605)"><path fill="rgb(27,153,139)" fill-opacity="1" d=" M-1.3660000562667847,16.33099937438965 C-10.385000228881836,15.576000213623047 -17.084999084472656,7.6539998054504395 -16.33099937438965,-1.3650000095367432 C-15.57699966430664,-10.385000228881836 -7.6529998779296875,-17.084999084472656 1.3650000095367432,-16.329999923706055 C10.385000228881836,-15.576000213623047 17.084999084472656,-7.6539998054504395 16.33099937438965,1.3650000095367432 C15.57699966430664,10.385000228881836 7.6539998054504395,17.084999084472656 -1.3660000562667847,16.33099937438965z"></path></g></g><g transform="matrix(1,0,0,1,587,348.501)" opacity="1" style="display: block;"><g opacity="1" transform="matrix(1,0,0,1,302.7,115.605)"><path fill="rgb(255,0,77)" fill-opacity="1" d=" M-1.3660000562667847,16.33099937438965 C-10.385000228881836,15.576000213623047 -17.084999084472656,7.6539998054504395 -16.33099937438965,-1.3650000095367432 C-15.57699966430664,-10.385000228881836 -7.6529998779296875,-17.084999084472656 1.3650000095367432,-16.329999923706055 C10.385000228881836,-15.576000213623047 17.084999084472656,-7.6539998054504395 16.33099937438965,1.3650000095367432 C15.57699966430664,10.385000228881836 7.6539998054504395,17.084999084472656 -1.3660000562667847,16.33099937438965z"></path></g></g><g filter="url(#iVFIwh55Ho)" mask="url(#XhW1svulVU)" transform="matrix(1.01,0,0,1.01,583.973,347.3449)" opacity="1" style="display: none;"><g opacity="1" transform="matrix(1,0,0,1,302.7,115.605)"><path fill="rgb(21,80,95)" fill-opacity="1" d=" M-1.3660000562667847,16.33099937438965 C-10.385000228881836,15.576000213623047 -17.084999084472656,7.6539998054504395 -16.33099937438965,-1.3650000095367432 C-15.57699966430664,-10.385000228881836 -7.6529998779296875,-17.084999084472656 1.3650000095367432,-16.329999923706055 C10.385000228881836,-15.576000213623047 17.084999084472656,-7.6539998054504395 16.33099937438965,1.3650000095367432 C15.57699966430664,10.385000228881836 7.6539998054504395,17.084999084472656 -1.3660000562667847,16.33099937438965z"></path></g></g><g mask="url(#ZAi5Lh47lS)" style="display: none;" transform="matrix(1.01,0,0,1.01,583.973,347.3449)" opacity="1"><g opacity="1" transform="matrix(1,0,0,1,302.7,115.605)"><path fill="rgb(255,255,255)" fill-opacity="1" d=" M-1.3660000562667847,16.33099937438965 C-10.385000228881836,15.576000213623047 -17.084999084472656,7.6539998054504395 -16.33099937438965,-1.3650000095367432 C-15.57699966430664,-10.385000228881836 -7.6529998779296875,-17.084999084472656 1.3650000095367432,-16.329999923706055 C10.385000228881836,-15.576000213623047 17.084999084472656,-7.6539998054504395 16.33099937438965,1.3650000095367432 C15.57699966430664,10.385000228881836 7.6539998054504395,17.084999084472656 -1.3660000562667847,16.33099937438965z"></path></g></g><g transform="matrix(1,0,0,1,587,348.5)" opacity="1" style="display: block;"><g opacity="1" transform="matrix(1,0,0,1,443.3,245.556)"><path fill="rgb(255,0,77)" fill-opacity="1" d=" M-1.3650000095367432,16.33099937438965 C-10.385000228881836,15.57699966430664 -17.084999084472656,7.6529998779296875 -16.33099937438965,-1.3660000562667847 C-15.576000213623047,-10.38599967956543 -7.6529998779296875,-17.086000442504883 1.3660000562667847,-16.33099937438965 C10.385000228881836,-15.57699966430664 17.084999084472656,-7.6539998054504395 16.33099937438965,1.3650000095367432 C15.57699966430664,10.385000228881836 7.6539998054504395,17.086000442504883 -1.3650000095367432,16.33099937438965z"></path></g></g><g mask="url(#dEVWwtcJ18)" transform="matrix(1.01,0,0,1.01,582.567,346.0444)" opacity="1" style="display: none;"><g opacity="1" transform="matrix(1,0,0,1,443.3,245.556)"><path fill="rgb(27,153,139)" fill-opacity="1" d=" M-1.3650000095367432,16.33099937438965 C-10.385000228881836,15.57699966430664 -17.084999084472656,7.6529998779296875 -16.33099937438965,-1.3660000562667847 C-15.576000213623047,-10.38599967956543 -7.6529998779296875,-17.086000442504883 1.3660000562667847,-16.33099937438965 C10.385000228881836,-15.57699966430664 17.084999084472656,-7.6539998054504395 16.33099937438965,1.3650000095367432 C15.57699966430664,10.385000228881836 7.6539998054504395,17.086000442504883 -1.3650000095367432,16.33099937438965z"></path></g></g><g filter="url(#XAfEkXbyyj)" mask="url(#tm7hoAyKV1)" style="display: none;" transform="matrix(1.01,0,0,1.01,582.567,346.0444)" opacity="1"><g opacity="1" transform="matrix(1,0,0,1,443.3,245.556)"><path fill="rgb(21,80,95)" fill-opacity="1" d=" M-1.3650000095367432,16.33099937438965 C-10.385000228881836,15.57699966430664 -17.084999084472656,7.6529998779296875 -16.33099937438965,-1.3660000562667847 C-15.576000213623047,-10.38599967956543 -7.6529998779296875,-17.086000442504883 1.3660000562667847,-16.33099937438965 C10.385000228881836,-15.57699966430664 17.084999084472656,-7.6539998054504395 16.33099937438965,1.3650000095367432 C15.57699966430664,10.385000228881836 7.6539998054504395,17.086000442504883 -1.3650000095367432,16.33099937438965z"></path></g></g></g><g transform="matrix(1,0,0,1,587,348.5)" opacity="1" style="display: block;"><g opacity="1" transform="matrix(1,0,0,1,369.137,193.954)"><path stroke-linecap="round" stroke-linejoin="round" fill-opacity="0" stroke="rgb(255,0,77)" stroke-opacity="1" stroke-width="10.818" d=" M33.93600082397461,-60.74700164794922 C7.953999996185303,-80.10099792480469 -25.558000564575195,-75.41600036621094 -48.275001525878906,-49.354000091552734 C-70.99199676513672,-23.292999267578125 -67.5530014038086,17.025999069213867 -41.492000579833984,39.74300003051758 C-41.492000579833984,39.74300003051758 -25.020000457763672,12.942000389099121 -19.149999618530273,20.610000610351562 C-13.279999732971191,28.27899932861328 -5.382999897003174,23.601999282836914 1.1109999418258667,20.948999404907227 C7.605000019073486,18.297000885009766 -1.1460000276565552,-0.3330000042915344 5.436999797821045,-8.359000205993652 C13.78499984741211,-18.538000106811523 -8.286999702453613,-30.256999969482422 -0.9039999842643738,-34.8849983215332 C6.480000019073486,-39.51300048828125 14.597000122070312,-43.53499984741211 23.104999542236328,-40.71200180053711 C31.61400032043457,-37.88800048828125 38.88199996948242,-32.513999938964844 45.56700134277344,-35.99399948120117 C52.250999450683594,-39.474998474121094 54.08000183105469,-40.54399871826172 54.08000183105469,-40.54399871826172 C70.99099731445312,-16.371000289916992 65.2030029296875,9.350000381469727 47.625999450683594,31.09600067138672 C47.13199996948242,31.70800018310547 1.1640000343322754,79.50199890136719 0.6420000195503235,80.0999984741211 C0.6420000195503235,80.0999984741211 -20.427000045776367,61.888999938964844 -20.427000045776367,61.888999938964844"></path></g></g><g filter="url(#kaM8BOyD51)" transform="matrix(1,0,0,1,587,348.5)" opacity="1" style="display: none;"><g opacity="1" transform="matrix(1,0,0,1,369.137,193.954)"><path stroke-linecap="round" stroke-linejoin="round" fill-opacity="0" stroke="rgb(255,255,255)" stroke-opacity="1" stroke-width="10.8" d=" M33.93600082397461,-60.74700164794922 C7.953999996185303,-80.10099792480469 -25.558000564575195,-75.41600036621094 -48.275001525878906,-49.354000091552734 C-70.99199676513672,-23.292999267578125 -67.5530014038086,17.025999069213867 -41.492000579833984,39.74300003051758 C-41.492000579833984,39.74300003051758 -25.020000457763672,12.942000389099121 -19.149999618530273,20.610000610351562 C-13.279999732971191,28.27899932861328 -5.382999897003174,23.601999282836914 1.1109999418258667,20.948999404907227 C7.605000019073486,18.297000885009766 -1.1460000276565552,-0.3330000042915344 5.436999797821045,-8.359000205993652 C13.78499984741211,-18.538000106811523 -8.286999702453613,-30.256999969482422 -0.9039999842643738,-34.8849983215332 C6.480000019073486,-39.51300048828125 14.597000122070312,-43.53499984741211 23.104999542236328,-40.71200180053711 C31.61400032043457,-37.88800048828125 38.88199996948242,-32.513999938964844 45.56700134277344,-35.99399948120117 C52.250999450683594,-39.474998474121094 54.08000183105469,-40.54399871826172 54.08000183105469,-40.54399871826172 C70.99099731445312,-16.371000289916992 65.2030029296875,9.350000381469727 47.625999450683594,31.09600067138672 C47.13199996948242,31.70800018310547 1.1640000343322754,79.50199890136719 0.6420000195503235,80.0999984741211 C0.6420000195503235,80.0999984741211 -20.427000045776367,61.888999938964844 -20.427000045776367,61.888999938964844"></path></g></g><g filter="url(#GbuvOIXG4F)" style="display: none;" transform="matrix(1,0,0,1,587,348.5)" opacity="1"><g opacity="1" transform="matrix(1,0,0,1,369.137,193.954)"><path stroke-linecap="round" stroke-linejoin="round" fill-opacity="0" stroke="rgb(27,153,139)" stroke-opacity="1" stroke-width="9.5" d=" M33.93600082397461,-60.74700164794922 C7.953999996185303,-80.10099792480469 -25.558000564575195,-75.41600036621094 -48.275001525878906,-49.354000091552734 C-70.99199676513672,-23.292999267578125 -67.5530014038086,17.025999069213867 -41.492000579833984,39.74300003051758 C-41.492000579833984,39.74300003051758 -25.020000457763672,12.942000389099121 -19.149999618530273,20.610000610351562 C-13.279999732971191,28.27899932861328 -5.382999897003174,23.601999282836914 1.1109999418258667,20.948999404907227 C7.605000019073486,18.297000885009766 -1.1460000276565552,-0.3330000042915344 5.436999797821045,-8.359000205993652 C13.78499984741211,-18.538000106811523 -8.286999702453613,-30.256999969482422 -0.9039999842643738,-34.8849983215332 C6.480000019073486,-39.51300048828125 14.597000122070312,-43.53499984741211 23.104999542236328,-40.71200180053711 C31.61400032043457,-37.88800048828125 38.88199996948242,-32.513999938964844 45.56700134277344,-35.99399948120117 C52.250999450683594,-39.474998474121094 54.08000183105469,-40.54399871826172 54.08000183105469,-40.54399871826172 C70.99099731445312,-16.371000289916992 65.2030029296875,9.350000381469727 47.625999450683594,31.09600067138672 C47.13199996948242,31.70800018310547 1.1640000343322754,79.50199890136719 0.6420000195503235,80.0999984741211 C0.6420000195503235,80.0999984741211 -20.427000045776367,61.888999938964844 -20.427000045776367,61.888999938964844"></path></g></g><g transform="matrix(1,0,0,1,587,348.5)" opacity="1" style="display: none;"><g opacity="1" transform="matrix(1,0,0,1,369.137,193.954)"><path stroke-linecap="round" stroke-linejoin="round" fill-opacity="0" stroke="rgb(255,0,77)" stroke-opacity="1" stroke-width="10.818" d=" M33.93600082397461,-60.74700164794922 C7.953999996185303,-80.10099792480469 -25.558000564575195,-75.41600036621094 -48.275001525878906,-49.354000091552734 C-70.99199676513672,-23.292999267578125 -67.5530014038086,17.025999069213867 -41.492000579833984,39.74300003051758 C-41.492000579833984,39.74300003051758 -25.020000457763672,12.942000389099121 -19.149999618530273,20.610000610351562 C-13.279999732971191,28.27899932861328 -5.382999897003174,23.601999282836914 1.1109999418258667,20.948999404907227 C7.605000019073486,18.297000885009766 -1.1460000276565552,-0.3330000042915344 5.436999797821045,-8.359000205993652 C13.78499984741211,-18.538000106811523 -8.286999702453613,-30.256999969482422 -0.9039999842643738,-34.8849983215332 C6.480000019073486,-39.51300048828125 14.597000122070312,-43.53499984741211 23.104999542236328,-40.71200180053711 C31.61400032043457,-37.88800048828125 38.88199996948242,-32.513999938964844 45.56700134277344,-35.99399948120117 C52.250999450683594,-39.474998474121094 54.08000183105469,-40.54399871826172 54.08000183105469,-40.54399871826172 C70.99099731445312,-16.371000289916992 65.2030029296875,9.350000381469727 47.625999450683594,31.09600067138672 C47.13199996948242,31.70800018310547 1.1640000343322754,79.50199890136719 0.6420000195503235,80.0999984741211 C0.6420000195503235,80.0999984741211 -20.427000045776367,61.888999938964844 -20.427000045776367,61.888999938964844"></path></g></g><g filter="url(#ARtRtrai91)" style="display: block;" transform="matrix(1,0,0,1,587,348.5)" opacity="1"><g opacity="1" transform="matrix(1,0,0,1,369.137,193.954)"><path stroke-linecap="round" stroke-linejoin="round" fill-opacity="0" stroke="rgb(255,255,255)" stroke-opacity="1" stroke-width="10.8" d=" M31.690000534057617,-62.347999572753906 C6.046999931335449,-79.81600189208984 -26.207000732421875,-74.6709976196289 -48.275001525878906,-49.354000091552734 C-70.99199676513672,-23.292999267578125 -67.5530014038086,17.025999069213867 -41.492000579833984,39.74300003051758 C-41.492000579833984,39.74300003051758 -25.020000457763672,12.942000389099121 -19.149999618530273,20.610000610351562 C-13.279999732971191,28.27899932861328 -5.382999897003174,23.601999282836914 1.1109999418258667,20.948999404907227 C7.605000019073486,18.297000885009766 -1.1460000276565552,-0.3330000042915344 5.436999797821045,-8.359000205993652 C13.78499984741211,-18.538000106811523 -8.286999702453613,-30.256999969482422 -0.9039999842643738,-34.8849983215332 C6.480000019073486,-39.51300048828125 14.597000122070312,-43.53499984741211 23.104999542236328,-40.71200180053711 C31.61400032043457,-37.88800048828125 38.88199996948242,-32.513999938964844 45.56700134277344,-35.99399948120117 C52.250999450683594,-39.474998474121094 54.08000183105469,-40.54399871826172 54.08000183105469,-40.54399871826172 C70.99099731445312,-16.371000289916992 65.2030029296875,9.350000381469727 47.625999450683594,31.09600067138672 C47.13199996948242,31.70800018310547 1.1640000343322754,79.50199890136719 0.6420000195503235,80.0999984741211 C0.6420000195503235,80.0999984741211 -13.019000053405762,68.29199981689453 -18.34000015258789,63.69300079345703"></path></g></g><g filter="url(#mT43knLYWk)" style="display: block;" transform="matrix(1,0,0,1,587,348.5)" opacity="1"><g opacity="1" transform="matrix(1,0,0,1,369.137,193.954)"><path stroke-linecap="round" stroke-linejoin="round" fill-opacity="0" stroke="rgb(27,153,139)" stroke-opacity="1" stroke-width="9.5" d=" M28.166000366210938,-64.58300018310547 C3.1459999084472656,-79.30799865722656 -27.207000732421875,-73.52400207519531 -48.275001525878906,-49.354000091552734 C-70.99199676513672,-23.292999267578125 -67.5530014038086,17.025999069213867 -41.492000579833984,39.74300003051758 C-41.492000579833984,39.74300003051758 -25.020000457763672,12.942000389099121 -19.149999618530273,20.610000610351562 C-13.279999732971191,28.27899932861328 -5.382999897003174,23.601999282836914 1.1109999418258667,20.948999404907227 C7.605000019073486,18.297000885009766 -1.1460000276565552,-0.3330000042915344 5.436999797821045,-8.359000205993652 C13.78499984741211,-18.538000106811523 -8.286999702453613,-30.256999969482422 -0.9039999842643738,-34.8849983215332 C6.480000019073486,-39.51300048828125 14.597000122070312,-43.53499984741211 23.104999542236328,-40.71200180053711 C31.61400032043457,-37.88800048828125 38.88199996948242,-32.513999938964844 45.56700134277344,-35.99399948120117 C52.250999450683594,-39.474998474121094 54.08000183105469,-40.54399871826172 54.08000183105469,-40.54399871826172 C70.99099731445312,-16.371000289916992 65.2030029296875,9.350000381469727 47.625999450683594,31.09600067138672 C47.13199996948242,31.70800018310547 1.1640000343322754,79.50199890136719 0.6420000195503235,80.0999984741211 C0.6420000195503235,80.0999984741211 -8.942999839782715,71.81500244140625 -15.182999610900879,66.4219970703125"></path></g></g><g transform="matrix(1,0,0,1,587,348.5)" opacity="1" style="display: block;"><g opacity="1" transform="matrix(1,0,0,1,369.137,193.954)"><path stroke-linecap="round" stroke-linejoin="round" fill-opacity="0" stroke="rgb(255,0,77)" stroke-opacity="1" stroke-width="10.818" d=" M23.29400062561035,-67.16100311279297 C-0.7059999704360962,-78.49099731445312 -28.55699920654297,-71.9749984741211 -48.275001525878906,-49.354000091552734 C-70.99199676513672,-23.292999267578125 -67.5530014038086,17.025999069213867 -41.492000579833984,39.74300003051758 C-41.492000579833984,39.74300003051758 -25.020000457763672,12.942000389099121 -19.149999618530273,20.610000610351562 C-13.279999732971191,28.27899932861328 -5.382999897003174,23.601999282836914 1.1109999418258667,20.948999404907227 C7.605000019073486,18.297000885009766 -1.1460000276565552,-0.3330000042915344 5.436999797821045,-8.359000205993652 C13.78499984741211,-18.538000106811523 -8.286999702453613,-30.256999969482422 -0.9039999842643738,-34.8849983215332 C6.480000019073486,-39.51300048828125 14.597000122070312,-43.53499984741211 23.104999542236328,-40.71200180053711 C31.61400032043457,-37.88800048828125 38.88199996948242,-32.513999938964844 45.56700134277344,-35.99399948120117 C52.250999450683594,-39.474998474121094 54.08000183105469,-40.54399871826172 54.08000183105469,-40.54399871826172 C70.99099731445312,-16.371000289916992 65.2030029296875,9.350000381469727 47.625999450683594,31.09600067138672 C47.13199996948242,31.70800018310547 1.1640000343322754,79.50199890136719 0.6420000195503235,80.0999984741211 C0.6420000195503235,80.0999984741211 -5.39900016784668,74.87899780273438 -11.01099967956543,70.02799987792969"></path></g></g><g style="display: none;"><g><path></path></g></g><g style="display: none;"><g><path></path></g></g><g style="display: none;"><g><path></path></g></g></g></g><defs><clipPath id="animationMask_PykNMECTtI"><rect width="1280" height="1280" x="0" y="0"></rect></clipPath><clipPath id="cp_kD2JIWLG"><path d="M0,0 L1920,0 L1920,1080 L0,1080z"></path></clipPath><filter id="mT43knLYWk" filterUnits="objectBoundingBox" x="0%" y="0%" width="100%" height="100%"><feColorMatrix type="matrix" color-interpolation-filters="sRGB" values="0 0 0 0 0.10588235408067703 0 0 0 0 0.6000000238418579 0 0 0 0 0.545098066329956 0 0 0 1 0"></feColorMatrix></filter><filter id="ARtRtrai91" filterUnits="objectBoundingBox" x="0%" y="0%" width="100%" height="100%"><feColorMatrix type="matrix" color-interpolation-filters="sRGB" values="0 0 0 0 1 0 0 0 0 1 0 0 0 0 1 0 0 0 1 0"></feColorMatrix></filter><filter id="GbuvOIXG4F" filterUnits="objectBoundingBox" x="0%" y="0%" width="100%" height="100%"><feColorMatrix type="matrix" color-interpolation-filters="sRGB" values="0 0 0 0 0.10588235408067703 0 0 0 0 0.6000000238418579 0 0 0 0 0.545098066329956 0 0 0 1 0"></feColorMatrix></filter><filter id="kaM8BOyD51" filterUnits="objectBoundingBox" x="0%" y="0%" width="100%" height="100%"><feColorMatrix type="matrix" color-interpolation-filters="sRGB" values="0 0 0 0 1 0 0 0 0 1 0 0 0 0 1 0 0 0 1 0"></feColorMatrix></filter><clipPath id="cp_tKkRk4Pw"><path d="M0,0 L1920,0 L1920,1080 L0,1080z"></path></clipPath><filter id="XAfEkXbyyj" filterUnits="objectBoundingBox" x="0%" y="0%" width="100%" height="100%"><feColorMatrix type="matrix" color-interpolation-filters="sRGB" values="0 0 0 0 0.10588235408067703 0 0 0 0 0.6000000238418579 0 0 0 0 0.545098066329956 0 0 0 1 0"></feColorMatrix></filter><filter id="fi_nzixQpJvRA"><feMorphology operator="dilate" in="SourceGraphic" radius="0.007050302088961402"></feMorphology></filter><filter id="fi_ivS7CCgK3X"><feMorphology operator="dilate" in="SourceGraphic" radius="0.0009501990232347879"></feMorphology></filter><mask id="tm7hoAyKV1"><path fill="#ffffff" clip-rule="nonzero" stroke="#ffffff" d=" M443.29998779296875,229.16700744628906 C434.2489929199219,229.16700744628906 426.9110107421875,236.5050048828125 426.9110107421875,245.55599975585938 C426.9110107421875,254.60699462890625 434.2489929199219,261.9440002441406 443.29998779296875,261.9440002441406 C452.35101318359375,261.9440002441406 459.68798828125,254.60699462890625 459.68798828125,245.55599975585938 C459.68798828125,236.5050048828125 452.35101318359375,229.16700744628906 443.29998779296875,229.16700744628906" fill-opacity="1" filter="null" stroke-width="0"></path><path fill="#000000" clip-rule="nonzero" stroke="#000000" d=" M443.29998779296875,229.16700744628906 C434.2489929199219,229.16700744628906 426.9110107421875,236.5050048828125 426.9110107421875,245.55599975585938 C426.9110107421875,254.60699462890625 434.2489929199219,261.9440002441406 443.29998779296875,261.9440002441406 C452.35101318359375,261.9440002441406 459.68798828125,254.60699462890625 459.68798828125,245.55599975585938 C459.68798828125,236.5050048828125 452.35101318359375,229.16700744628906 443.29998779296875,229.16700744628906" fill-opacity="1" filter="null" stroke-width="0"></path></mask><filter id="fi_yPm4m8ZeGm"><feMorphology operator="dilate" in="SourceGraphic" radius="0.0033444941101592462"></feMorphology></filter><filter id="fi_jDnAkdK0Yu"><feMorphology operator="dilate" in="SourceGraphic" radius="0.00011214678704440928"></feMorphology></filter><mask id="dEVWwtcJ18"><path fill="#ffffff" clip-rule="nonzero" stroke="#ffffff" d=" M443.29998779296875,229.16700744628906 C434.2489929199219,229.16700744628906 426.9110107421875,236.5050048828125 426.9110107421875,245.55599975585938 C426.9110107421875,254.60699462890625 434.2489929199219,261.9440002441406 443.29998779296875,261.9440002441406 C452.35101318359375,261.9440002441406 459.68798828125,254.60699462890625 459.68798828125,245.55599975585938 C459.68798828125,236.5050048828125 452.35101318359375,229.16700744628906 443.29998779296875,229.16700744628906" fill-opacity="1" filter="null" stroke-width="0"></path><path fill="#000000" clip-rule="nonzero" stroke="#000000" d=" M443.29998779296875,229.16700744628906 C434.2489929199219,229.16700744628906 426.9110107421875,236.5050048828125 426.9110107421875,245.55599975585938 C426.9110107421875,254.60699462890625 434.2489929199219,261.9440002441406 443.29998779296875,261.9440002441406 C452.35101318359375,261.9440002441406 459.68798828125,254.60699462890625 459.68798828125,245.55599975585938 C459.68798828125,236.5050048828125 452.35101318359375,229.16700744628906 443.29998779296875,229.16700744628906" fill-opacity="1" filter="null" stroke-width="0"></path></mask><filter id="fi_SYpmdAFMRU"><feMorphology operator="dilate" in="SourceGraphic" radius="0.007050302088961402"></feMorphology></filter><filter id="fi_ZeYeiBoW9A"><feMorphology operator="dilate" in="SourceGraphic" radius="0.0009501990232347879"></feMorphology></filter><mask id="ZAi5Lh47lS"><path fill="#ffffff" clip-rule="nonzero" stroke="#ffffff" d=" M302.73699951171875,99.2300033569336 C293.6860046386719,99.2300033569336 286.3479919433594,106.56700134277344 286.3479919433594,115.61799621582031 C286.3479919433594,124.66899871826172 293.6860046386719,132.0070037841797 302.73699951171875,132.0070037841797 C311.7879943847656,132.0070037841797 319.1260070800781,124.66899871826172 319.1260070800781,115.61799621582031 C319.1260070800781,106.56700134277344 311.7879943847656,99.2300033569336 302.73699951171875,99.2300033569336" fill-opacity="1" filter="null" stroke-width="0"></path><path fill="#000000" clip-rule="nonzero" stroke="#000000" d=" M302.73699951171875,99.2300033569336 C293.6860046386719,99.2300033569336 286.3479919433594,106.56700134277344 286.3479919433594,115.61799621582031 C286.3479919433594,124.66899871826172 293.6860046386719,132.0070037841797 302.73699951171875,132.0070037841797 C311.7879943847656,132.0070037841797 319.1260070800781,124.66899871826172 319.1260070800781,115.61799621582031 C319.1260070800781,106.56700134277344 311.7879943847656,99.2300033569336 302.73699951171875,99.2300033569336" fill-opacity="1" filter="null" stroke-width="0"></path></mask><filter id="iVFIwh55Ho" filterUnits="objectBoundingBox" x="0%" y="0%" width="100%" height="100%"><feColorMatrix type="matrix" color-interpolation-filters="sRGB" values="0 0 0 0 0.10588235408067703 0 0 0 0 0.6000000238418579 0 0 0 0 0.545098066329956 0 0 0 1 0"></feColorMatrix></filter><filter id="fi_xKZvWqpJFt"><feMorphology operator="dilate" in="SourceGraphic" radius="0.0033444941101592462"></feMorphology></filter><filter id="fi_tErGiLXUP8"><feMorphology operator="dilate" in="SourceGraphic" radius="0.00011214678704440928"></feMorphology></filter><mask id="XhW1svulVU"><path fill="#ffffff" clip-rule="nonzero" stroke="#ffffff" d=" M302.73699951171875,99.2300033569336 C293.6860046386719,99.2300033569336 286.3479919433594,106.56700134277344 286.3479919433594,115.61799621582031 C286.3479919433594,124.66899871826172 293.6860046386719,132.0070037841797 302.73699951171875,132.0070037841797 C311.7879943847656,132.0070037841797 319.1260070800781,124.66899871826172 319.1260070800781,115.61799621582031 C319.1260070800781,106.56700134277344 311.7879943847656,99.2300033569336 302.73699951171875,99.2300033569336" fill-opacity="1" filter="null" stroke-width="0"></path><path fill="#000000" clip-rule="nonzero" stroke="#000000" d=" M302.73699951171875,99.2300033569336 C293.6860046386719,99.2300033569336 286.3479919433594,106.56700134277344 286.3479919433594,115.61799621582031 C286.3479919433594,124.66899871826172 293.6860046386719,132.0070037841797 302.73699951171875,132.0070037841797 C311.7879943847656,132.0070037841797 319.1260070800781,124.66899871826172 319.1260070800781,115.61799621582031 C319.1260070800781,106.56700134277344 311.7879943847656,99.2300033569336 302.73699951171875,99.2300033569336" fill-opacity="1" filter="null" stroke-width="0"></path></mask><filter id="UkbgwFe2po" filterUnits="objectBoundingBox" x="0%" y="0%" width="100%" height="100%"><feColorMatrix type="matrix" color-interpolation-filters="sRGB" values="0 0 0 0 0.10588235408067703 0 0 0 0 0.6000000238418579 0 0 0 0 0.545098066329956 0 0 0 1 0"></feColorMatrix></filter><filter id="qy5Ijl4hpC" filterUnits="objectBoundingBox" x="0%" y="0%" width="100%" height="100%"><feColorMatrix type="matrix" color-interpolation-filters="sRGB" values="0 0 0 0 0.10588235408067703 0 0 0 0 0.6000000238418579 0 0 0 0 0.545098066329956 0 0 0 1 0"></feColorMatrix></filter><filter id="L5AZCUXGVB" filterUnits="objectBoundingBox" x="0%" y="0%" width="100%" height="100%"><feColorMatrix type="matrix" color-interpolation-filters="sRGB" values="0 0 0 0 0.10588235408067703 0 0 0 0 0.6000000238418579 0 0 0 0 0.545098066329956 0 0 0 1 0"></feColorMatrix></filter><filter id="AbmsdaTqMN" filterUnits="objectBoundingBox" x="0%" y="0%" width="100%" height="100%"><feColorMatrix type="matrix" color-interpolation-filters="sRGB" values="0 0 0 0 0.10588235408067703 0 0 0 0 0.6000000238418579 0 0 0 0 0.545098066329956 0 0 0 1 0"></feColorMatrix></filter></defs></svg>